HIERARCHY
ROOT Hips
{
	OFFSET 0.000000 0.000000 0.000000
	CHANNELS 6 Xposition Yposition Zposition Xrotation Yrotation Zrotation
	JOINT LeftUpLeg_virtual
	{
		OFFSET 0.000000 0.000000 0.000000
		CHANNELS 3 Xrotation Yrotation Zrotation
		JOINT LeftUpLeg
		{
			OFFSET 15.427100 -6.655098 0.678600
			CHANNELS 3 Xrotation Yrotation Zrotation
			JOINT LeftLeg
			{
				OFFSET 4.081073 -39.591068 13.024000
				CHANNELS 3 Xrotation Yrotation Zrotation
				JOINT LeftFoot
				{
					OFFSET -4.081074 -37.707932 -15.979700
					CHANNELS 3 Xrotation Yrotation Zrotation
					JOINT LeftToeBase
					{
						OFFSET 5.346399 -15.068900 20.645000
						CHANNELS 3 Xrotation Yrotation Zrotation
						JOINT LeftToe_End
						{
							OFFSET 2.754700 0.931300 11.300900
							CHANNELS 3 Xrotation Yrotation Zrotation
							End Site
							{
								OFFSET 0 0 0
							}
						}
					}
				}
			}
		}
	}
	JOINT RightUpLeg_virtual
	{
		OFFSET 0.000000 0.000000 0.000000
		CHANNELS 3 Xrotation Yrotation Zrotation
		JOINT RightUpLeg
		{
			OFFSET -15.569500 -6.655098 0.678600
			CHANNELS 3 Xrotation Yrotation Zrotation
			JOINT RightLeg
			{
				OFFSET -4.081825 -39.591045 13.023800
				CHANNELS 3 Xrotation Yrotation Zrotation
				JOINT RightFoot
				{
					OFFSET 4.081824 -37.707954 -15.979600
					CHANNELS 3 Xrotation Yrotation Zrotation
					JOINT RightToeBase
					{
						OFFSET -5.346400 -15.068900 20.645000
						CHANNELS 3 Xrotation Yrotation Zrotation
						JOINT RightToe_End
						{
							OFFSET -2.754700 0.931300 11.300900
							CHANNELS 3 Xrotation Yrotation Zrotation
							End Site
							{
								OFFSET 0 0 0
							}
						}
					}
				}
			}
		}
	}
	JOINT Spine_virtual
	{
		OFFSET 0.000000 0.000000 0.000000
		CHANNELS 3 Xrotation Yrotation Zrotation
		JOINT Spine
		{
			OFFSET -0.279200 12.230698 -2.892100
			CHANNELS 3 Xrotation Yrotation Zrotation
			JOINT Spine1
			{
				OFFSET -0.232667 10.192268 -1.242267
				CHANNELS 3 Xrotation Yrotation Zrotation
				JOINT Spine1_split
				{
					OFFSET -0.232667 10.192268 -1.242267
					CHANNELS 3 Xrotation Yrotation Zrotation
					JOINT Spine2
					{
						OFFSET -0.232667 10.192268 -1.242267
						CHANNELS 3 Xrotation Yrotation Zrotation
						JOINT Neck_virtual
						{
							OFFSET 0.000000 0.000000 0.000000
							CHANNELS 3 Xrotation Yrotation Zrotation
							JOINT Neck
							{
								OFFSET -0.418800 17.814194 8.416900
								CHANNELS 3 Xrotation Yrotation Zrotation
								JOINT Head
								{
									OFFSET 0.000000 7.031097 3.806800
									CHANNELS 3 Xrotation Yrotation Zrotation
									JOINT HeadTop_End
									{
										OFFSET 0.000000 24.646606 12.978600
										CHANNELS 3 Xrotation Yrotation Zrotation
										End Site
										{
											OFFSET 0 0 0
										}
									}
								}
							}
						}
						JOINT LeftShoulder_virtual
						{
							OFFSET 0.000000 0.000000 0.000000
							CHANNELS 3 Xrotation Yrotation Zrotation
							JOINT LeftShoulder
							{
								OFFSET 8.476499 7.247704 -3.868750
								CHANNELS 3 Xrotation Yrotation Zrotation
								JOINT LeftShoulder_split
								{
									OFFSET 8.476499 7.247704 -3.868750
									CHANNELS 3 Xrotation Yrotation Zrotation
									JOINT LeftArm
									{
										OFFSET 9.308998 -2.777710 0.208600
										CHANNELS 3 Xrotation Yrotation Zrotation
										JOINT LeftForeArm
										{
											OFFSET 29.972298 0.000000 0.000000
											CHANNELS 3 Xrotation Yrotation Zrotation
											JOINT LeftHand
											{
												OFFSET 26.026505 0.000000 0.000000
												CHANNELS 3 Xrotation Yrotation Zrotation
												End Site
												{
													OFFSET 0 0 0
												}
											}
										}
									}
								}
							}
						}
						JOINT RightShoulder_virtual
						{
							OFFSET 0.000000 0.000000 0.000000
							CHANNELS 3 Xrotation Yrotation Zrotation
							JOINT RightShoulder
							{
								OFFSET -7.570500 7.247704 -3.868750
								CHANNELS 3 Xrotation Yrotation Zrotation
								JOINT RightShoulder_split
								{
									OFFSET -7.570500 7.247704 -3.868750
									CHANNELS 3 Xrotation Yrotation Zrotation
									JOINT RightArm
									{
										OFFSET -9.308998 -2.777710 0.208500
										CHANNELS 3 Xrotation Yrotation Zrotation
										JOINT RightForeArm
										{
											OFFSET -29.972300 0.000000 0.000000
											CHANNELS 3 Xrotation Yrotation Zrotation
											JOINT RightHand
											{
												OFFSET -26.026505 0.000000 0.000000
												CHANNELS 3 Xrotation Yrotation Zrotation
												End Site
												{
													OFFSET 0 0 0
												}
											}
										}
									}
								}
							}
						}
					}
				}
			}
		}
	}
}
MOTION
Frames: 10
Frame Time: 0.03333333
0.497062 91.624092 0.291027 0.000000 0.000000 0.000000 -1.862724 6.458842 -2.595869 -1.056830 9.496602 13.736412 12.028585 -4.932971 -1.064615 -10.004213 2.657431 -9.888814 2.459214 0.159653 -3.042438 0.000000 0.000000 0.000000 -1.305606 6.161942 -3.027109 1.467894 -2.625735 -1.897587 9.454661 6.270428 6.021381 -8.155146 0.105600 -1.963469 0.948843 -0.082642 0.458551 0.000000 0.000000 0.000000 -1.407508 9.771642 -3.169081 7.909157 -0.699848 1.735905 2.452050 0.240473 -0.330976 0.152855 -1.745289 1.014796 0.000000 0.000000 0.000000 -3.887070 0.004618 0.273158 0.147103 0.801995 0.084685 4.247146 -2.151813 -1.054985 0.000000 0.000000 0.000000 -3.998367 -0.302661 0.355714 0.448031 -2.456968 -7.105209 -2.107993 -2.002631 0.409548 4.586774 -3.583755 -73.224600 5.143871 -11.976904 1.466849 0.000000 0.000000 0.000000 -4.591943 -0.628774 0.300427 0.531538 7.883149 6.217569 -3.931972 -1.605964 -0.572383 4.780587 13.617920 74.587804 17.885528 18.672554 -3.671853 0.000000 0.000000 0.000000 
0.471586 91.732605 0.410881 0.000000 0.000000 0.000000 -1.680377 6.411832 -2.617084 -1.042816 9.594578 13.938673 11.723646 -4.812023 -1.214788 -10.261490 2.434444 -9.681071 2.541364 0.151081 -2.946568 0.000000 0.000000 0.000000 -1.212105 5.910612 -3.013261 1.457073 -2.457646 -1.845182 9.605287 6.353067 6.028820 -8.189983 0.308950 -2.269101 1.338924 -0.120364 0.537103 0.000000 0.000000 0.000000 -1.026917 9.680294 -3.128191 8.031553 -0.661267 1.753015 2.460927 0.181036 -0.362803 0.425442 -2.142398 0.993018 0.000000 0.000000 0.000000 -3.862984 -0.008066 0.253942 0.208691 0.940173 0.000605 4.349071 -2.354308 -0.923710 0.000000 0.000000 0.000000 -3.986969 -0.348671 0.325034 0.487636 -2.663382 -7.236042 -1.999355 -1.988238 0.617960 4.443146 -3.511763 -73.333310 5.118581 -12.092387 1.406113 0.000000 0.000000 0.000000 -4.596033 -0.644468 0.328103 0.571374 7.863566 6.323922 -3.878741 -1.666970 -0.689351 4.926255 13.471258 74.530170 17.869189 18.869933 -3.694167 0.000000 0.000000 0.000000 
0.411813 91.790993 0.546310 0.000000 0.000000 0.000000 -1.510570 6.227448 -2.639606 -1.132349 9.708935 14.261590 11.422917 -4.663164 -1.303337 -10.424376 2.059932 -9.795009 2.609467 0.119236 -2.749567 0.000000 0.000000 0.000000 -1.083497 5.647996 -3.020967 1.218995 -2.312526 -1.758996 9.909683 6.615504 6.105858 -8.123902 0.586415 -2.446176 1.397942 -0.141546 0.492326 0.000000 0.000000 0.000000 -0.669990 9.405775 -3.103583 8.349878 -0.614670 1.836186 2.396765 0.122284 -0.390213 0.553626 -2.360424 0.882532 0.000000 0.000000 0.000000 -3.855629 -0.037384 0.242107 0.256328 1.131412 -0.061080 4.306135 -2.552573 -0.879179 0.000000 0.000000 0.000000 -4.008337 -0.404407 0.307256 0.525507 -2.967527 -7.381911 -1.871070 -1.931186 0.882143 4.267582 -3.356508 -73.372481 5.189650 -12.145849 1.287930 0.000000 0.000000 0.000000 -4.636525 -0.683478 0.352803 0.594048 7.731043 6.570909 -3.864711 -1.623701 -0.843524 5.248022 13.669958 74.129061 17.774579 19.132514 -3.684294 0.000000 0.000000 0.000000 
0.315123 91.765976 0.721199 0.000000 0.000000 0.000000 -1.380623 5.993091 -2.659561 -1.185691 9.770592 14.613360 11.184008 -4.486652 -1.328969 -10.449519 1.644540 -10.194960 2.649647 0.074748 -2.488718 0.000000 0.000000 0.000000 -0.938033 5.385158 -3.045495 0.802989 -2.276257 -1.670338 10.346533 7.009258 6.270912 -7.944929 0.884914 -2.487772 1.101041 -0.151535 0.354775 0.000000 0.000000 0.000000 -0.375222 8.927978 -3.076107 8.786057 -0.566094 1.935900 2.254766 0.070873 -0.391967 0.521534 -2.361074 0.778403 0.000000 0.000000 0.000000 -3.857362 -0.075829 0.249028 0.296591 1.346907 -0.095561 4.129557 -2.741133 -0.906125 0.000000 0.000000 0.000000 -4.060036 -0.464024 0.317204 0.564599 -3.294085 -7.524541 -1.902515 -1.817651 1.033808 4.080926 -3.144980 -73.323064 5.362355 -12.091259 1.132482 0.000000 0.000000 0.000000 -4.710091 -0.737660 0.384841 0.605242 7.495383 6.917801 -3.906012 -1.515779 -1.058397 5.701634 14.181563 73.450113 17.598863 19.432499 -3.641826 0.000000 0.000000 0.000000 
0.171583 91.687241 0.971340 0.000000 0.000000 0.000000 -1.275862 5.705163 -2.671948 -1.007968 9.718354 14.889775 11.030604 -4.198284 -1.295834 -10.452899 1.349577 -10.635396 2.656243 0.041645 -2.278788 0.000000 0.000000 0.000000 -0.776263 5.071904 -3.073763 0.319404 -2.411831 -1.628801 10.853629 7.455856 6.502935 -7.704469 1.127975 -2.496190 0.695313 -0.152612 0.188191 0.000000 0.000000 0.000000 -0.160700 8.256813 -3.036466 9.248579 -0.529131 2.006307 2.057503 0.026345 -0.347978 0.456311 -2.193566 0.697745 0.000000 0.000000 0.000000 -3.861337 -0.123770 0.291829 0.340369 1.582445 -0.077106 3.855356 -2.902631 -0.989103 0.000000 0.000000 0.000000 -4.132011 -0.523760 0.366919 0.603551 -3.591667 -7.680045 -2.102929 -1.666155 1.029758 3.890149 -2.897489 -73.177281 5.633186 -11.900065 0.960277 0.000000 0.000000 0.000000 -4.801216 -0.800532 0.443167 0.622319 7.159339 7.300062 -3.931457 -1.412721 -1.305666 6.233307 14.946158 72.585964 17.353223 19.716012 -3.573937 0.000000 0.000000 0.000000 
-0.049921 91.584808 1.199100 0.000000 0.000000 0.000000 -1.195301 5.400704 -2.669697 -0.583936 9.531345 15.061981 10.819944 -3.729168 -1.208757 -10.580358 1.270159 -10.951473 2.745544 0.025901 -2.223019 0.000000 0.000000 0.000000 -0.590571 4.697924 -3.095998 -0.172355 -2.693734 -1.636931 11.344371 7.919117 6.774225 -7.537023 1.280319 -2.581851 0.460885 -0.141153 0.062270 0.000000 0.000000 0.000000 0.022044 7.422324 -3.003389 9.629328 -0.503803 2.023385 1.834525 -0.022639 -0.242861 0.367895 -1.890965 0.646138 0.000000 0.000000 0.000000 -3.863145 -0.181928 0.378904 0.370664 1.838015 0.015710 3.514467 -3.026078 -1.095395 0.000000 0.000000 0.000000 -4.218133 -0.586842 0.463750 0.634835 -3.822098 -7.853706 -2.358849 -1.484310 0.906485 3.695038 -2.633300 -72.925991 5.980673 -11.547144 0.779171 0.000000 0.000000 0.000000 -4.883777 -0.865333 0.542004 0.664344 6.754900 7.655612 -3.942678 -1.350676 -1.520155 6.786645 15.860763 71.641574 17.065544 19.939943 -3.494480 0.000000 0.000000 0.000000 
-0.317546 91.457321 1.417286 0.000000 0.000000 0.000000 -1.093621 5.102425 -2.655269 -0.013062 9.287886 15.185450 10.380396 -3.034015 -1.155477 -10.906251 1.390839 -11.294775 2.986454 0.001210 -2.382609 0.000000 0.000000 0.000000 -0.358915 4.239050 -3.109223 -0.649421 -3.027113 -1.654389 11.814549 8.417513 7.052966 -7.529969 1.388777 -2.841447 0.493884 -0.104919 0.021169 0.000000 0.000000 0.000000 0.213716 6.433260 -2.990857 9.877495 -0.497787 1.975672 1.624193 -0.086112 -0.088046 0.373436 -1.532439 0.666161 0.000000 0.000000 0.000000 -3.851254 -0.247372 0.507167 0.387182 2.121122 0.188778 3.182075 -3.091225 -1.195571 0.000000 0.000000 0.000000 -4.302168 -0.664365 0.597957 0.653363 -3.966690 -8.060094 -2.585422 -1.309137 0.739674 3.547187 -2.315540 -72.580418 6.363497 -11.073444 0.589048 0.000000 0.000000 0.000000 -4.950129 -0.934357 0.685253 0.735369 6.308120 7.971580 -3.906646 -1.331122 -1.657712 7.284783 16.845533 70.699404 16.761689 20.059142 -3.419206 0.000000 0.000000 0.000000 
-0.654104 91.344170 1.709198 0.000000 0.000000 0.000000 -0.935117 4.735418 -2.624614 0.566168 8.972283 15.363633 9.747938 -2.208689 -1.228555 -11.179967 1.575066 -12.058002 3.132993 -0.034983 -2.629420 0.000000 0.000000 0.000000 -0.056537 3.778949 -3.096810 -1.080534 -3.262902 -1.585065 12.247402 8.967267 7.315997 -7.654026 1.452598 -3.223059 0.596767 -0.045466 0.054187 0.000000 0.000000 0.000000 0.409032 5.339762 -3.008523 9.966302 -0.511389 1.885241 1.456226 -0.177093 0.091536 0.414662 -1.253482 0.640835 0.000000 0.000000 0.000000 -3.837189 -0.324269 0.654262 0.397872 2.422748 0.450603 2.927581 -3.037873 -1.277340 0.000000 0.000000 0.000000 -4.360969 -0.758035 0.751687 0.658866 -4.010947 -8.272110 -2.721767 -1.242601 0.645544 3.457516 -1.941540 -72.173243 6.724894 -10.608042 0.376760 0.000000 0.000000 0.000000 -4.992658 -1.009589 0.858293 0.822177 5.848968 8.254875 -3.854074 -1.302181 -1.676902 7.672612 17.803342 69.829559 16.455772 20.062436 -3.355507 0.000000 0.000000 0.000000 
-1.116843 91.204666 2.117638 0.000000 0.000000 0.000000 -0.735848 4.224145 -2.569133 1.024604 8.595080 15.683120 9.181403 -1.256401 -1.417285 -11.279283 1.778851 -13.373498 3.081353 -0.089413 -2.761207 0.000000 0.000000 0.000000 0.307267 3.211851 -3.060890 -1.488437 -3.300239 -1.298768 12.694073 9.590673 7.573226 -7.862593 1.468645 -3.600978 0.490144 0.029292 0.120789 0.000000 0.000000 0.000000 0.585314 4.134638 -3.064583 9.927701 -0.531743 1.803622 1.334890 -0.290818 0.265335 0.455092 -1.049208 0.620855 0.000000 0.000000 0.000000 -3.834949 -0.413930 0.786192 0.410703 2.745137 0.773061 2.795623 -2.844671 -1.333994 0.000000 0.000000 0.000000 -4.380210 -0.864131 0.900704 0.652266 -3.955493 -8.456350 -2.755686 -1.303766 0.631362 3.470788 -1.578678 -71.729643 6.994464 -10.260476 0.137575 0.000000 0.000000 0.000000 -5.005605 -1.092664 1.024379 0.910396 5.404080 8.545351 -3.836098 -1.207496 -1.612667 7.925972 18.629225 69.068328 16.147073 19.967824 -3.296212 0.000000 0.000000 0.000000 
-1.672633 91.022415 2.667995 0.000000 0.000000 0.000000 -0.514297 3.408651 -2.482163 1.498605 8.209161 16.036395 8.960115 -0.037104 -1.633305 -11.422703 2.112560 -15.048268 2.931815 -0.154147 -2.652561 0.000000 0.000000 0.000000 0.666440 2.381928 -2.999460 -1.881646 -3.121663 -0.738243 13.308005 10.272811 7.821663 -8.168047 1.458379 -3.960825 0.082546 0.109510 0.186772 0.000000 0.000000 0.000000 0.698536 2.758452 -3.139337 9.861954 -0.560569 1.778272 1.234084 -0.421234 0.399725 0.533734 -0.897810 0.634755 0.000000 0.000000 0.000000 -3.842048 -0.514433 0.876543 0.434395 3.111363 1.117884 2.779260 -2.503266 -1.363478 0.000000 0.000000 0.000000 -4.349613 -0.978655 1.017510 0.642626 -3.811733 -8.608416 -2.691890 -1.463590 0.688615 3.585230 -1.260703 -71.302285 7.107286 -10.116839 -0.126850 0.000000 0.000000 0.000000 -4.990964 -1.187674 1.142607 0.983431 4.970387 8.883832 -3.765273 -1.038343 -1.505120 8.023557 19.269676 68.406551 15.825536 19.793564 -3.229570 0.000000 0.000000 0.000000 
